<svg width="79" height="42" viewBox="0 0 79 42" fill="none" xmlns="http://www.w3.org/2000/svg">
<path d="M13 20.5L15 22.5L19.5 18M24 21C24 25.9084 18.646 29.4784 16.698 30.6149C16.4766 30.744 16.3659 30.8086 16.2097 30.8421C16.0884 30.8681 15.9116 30.8681 15.7903 30.8421C15.6341 30.8086 15.5234 30.744 15.302 30.6149C13.354 29.4784 8 25.9084 8 21V16.2176C8 15.4181 8 15.0183 8.13076 14.6747C8.24627 14.3711 8.43398 14.1003 8.67766 13.8855C8.9535 13.6424 9.3278 13.5021 10.0764 13.2213L15.4382 11.2107C15.6461 11.1327 15.75 11.0937 15.857 11.0783C15.9518 11.0646 16.0482 11.0646 16.143 11.0783C16.25 11.0937 16.3539 11.1327 16.5618 11.2107L21.9236 13.2213C22.6722 13.5021 23.0465 13.6424 23.3223 13.8855C23.566 14.1003 23.7537 14.3711 23.8692 14.6747C24 15.0183 24 15.4181 24 16.2176V21Z" stroke="#004A46" style="stroke:#004A46;stroke:color(display-p3 0.0000 0.2902 0.2745);stroke-opacity:1;" stroke-width="2" stroke-linecap="round" stroke-linejoin="round"/>
<path d="M45.3395 17.4531C45.2732 16.8329 44.9938 16.3499 44.5014 16.0043C44.0137 15.6586 43.3793 15.4858 42.598 15.4858C42.0488 15.4858 41.5777 15.5687 41.1847 15.7344C40.7917 15.9001 40.491 16.125 40.2827 16.4091C40.0743 16.6932 39.9678 17.0175 39.9631 17.3821C39.9631 17.6851 40.0317 17.9479 40.169 18.1705C40.3111 18.393 40.5028 18.5824 40.7443 18.7386C40.9858 18.8902 41.2533 19.018 41.5469 19.1222C41.8404 19.2263 42.1364 19.3139 42.4347 19.3849L43.7983 19.7259C44.3475 19.8537 44.8755 20.0265 45.3821 20.2443C45.8935 20.4621 46.3504 20.7367 46.7528 21.0682C47.16 21.3996 47.482 21.7997 47.7188 22.2685C47.9555 22.7372 48.0739 23.2865 48.0739 23.9162C48.0739 24.7685 47.8561 25.5189 47.4205 26.1676C46.9848 26.8116 46.3551 27.3158 45.5312 27.6804C44.7121 28.0402 43.7202 28.2202 42.5554 28.2202C41.4238 28.2202 40.4413 28.045 39.608 27.6946C38.7794 27.3442 38.1307 26.8329 37.6619 26.1605C37.1979 25.4882 36.947 24.669 36.9091 23.7031H39.5014C39.5393 24.2098 39.6955 24.6312 39.9702 24.9673C40.2448 25.3035 40.6023 25.5545 41.0426 25.7202C41.4877 25.8859 41.9848 25.9688 42.5341 25.9688C43.107 25.9688 43.6089 25.8835 44.0398 25.7131C44.4754 25.5379 44.8163 25.2964 45.0625 24.9886C45.3087 24.6761 45.4342 24.3116 45.4389 23.8949C45.4342 23.5161 45.3229 23.2036 45.1051 22.9574C44.8873 22.7064 44.5819 22.4981 44.1889 22.3324C43.8007 22.1619 43.3461 22.0104 42.8253 21.8778L41.1705 21.4517C39.9725 21.1439 39.0256 20.6776 38.3295 20.0526C37.6383 19.4228 37.2926 18.5871 37.2926 17.5455C37.2926 16.6884 37.5246 15.938 37.9886 15.294C38.4574 14.6501 39.0942 14.1506 39.8991 13.7955C40.7041 13.4356 41.6155 13.2557 42.6335 13.2557C43.6657 13.2557 44.5701 13.4356 45.3466 13.7955C46.1278 14.1506 46.741 14.6454 47.1861 15.2798C47.6312 15.9096 47.8608 16.634 47.875 17.4531H45.3395ZM52.8803 21.608V28H50.3093V13.4545H52.8235V18.9446H52.9513C53.207 18.3291 53.6024 17.8437 54.1374 17.4886C54.6772 17.1288 55.3638 16.9489 56.1971 16.9489C56.9547 16.9489 57.6152 17.1075 58.1786 17.4247C58.7421 17.742 59.1777 18.206 59.4854 18.8168C59.7979 19.4276 59.9542 20.1733 59.9542 21.054V28H57.3832V21.4517C57.3832 20.7178 57.1938 20.1473 56.815 19.7401C56.4409 19.3281 55.9154 19.1222 55.2383 19.1222C54.7837 19.1222 54.3765 19.2216 54.0167 19.4205C53.6616 19.6146 53.3822 19.8963 53.1786 20.2656C52.9798 20.6349 52.8803 21.0824 52.8803 21.608ZM62.5749 28V17.0909H65.146V28H62.5749ZM63.8675 15.5426C63.4603 15.5426 63.11 15.4077 62.8164 15.1378C62.5228 14.8632 62.3761 14.5341 62.3761 14.1506C62.3761 13.7623 62.5228 13.4332 62.8164 13.1634C63.11 12.8887 63.4603 12.7514 63.8675 12.7514C64.2795 12.7514 64.6299 12.8887 64.9187 13.1634C65.2122 13.4332 65.359 13.7623 65.359 14.1506C65.359 14.5341 65.2122 14.8632 64.9187 15.1378C64.6299 15.4077 64.2795 15.5426 63.8675 15.5426ZM70.3608 21.608V28H67.7898V17.0909H70.2472V18.9446H70.375C70.6259 18.3338 71.026 17.8485 71.5753 17.4886C72.1293 17.1288 72.8134 16.9489 73.6278 16.9489C74.3807 16.9489 75.0365 17.1098 75.5952 17.4318C76.1586 17.7538 76.5942 18.2202 76.902 18.831C77.2145 19.4418 77.3684 20.1828 77.3636 21.054V28H74.7926V21.4517C74.7926 20.7225 74.6032 20.152 74.2244 19.7401C73.8504 19.3281 73.3319 19.1222 72.669 19.1222C72.2192 19.1222 71.8191 19.2216 71.4688 19.4205C71.1231 19.6146 70.8509 19.8963 70.652 20.2656C70.4579 20.6349 70.3608 21.0824 70.3608 21.608Z" fill="#004A46" style="fill:#004A46;fill:color(display-p3 0.0000 0.2902 0.2745);fill-opacity:1;"/>
</svg>
