<svg xmlns="http://www.w3.org/2000/svg" xmlns:xlink="http://www.w3.org/1999/xlink" id="svg" version="1.1" viewBox="18.16 85.92 351.84 55.42"><g id="svgg"><path id="path0" d="M31.917 89.173 C 27.792 90.989,23.008 93.092,21.287 93.847 L 18.157 95.220 18.203 108.235 L 18.250 121.250 18.758 122.417 C 20.794 127.093,27.250 133.221,36.866 139.604 L 39.482 141.341 40.600 140.656 C 50.187 134.788,58.345 127.379,60.359 122.710 L 60.917 121.417 60.917 108.274 L 60.917 95.132 53.417 91.888 C 49.292 90.104,44.529 88.041,42.833 87.304 C 41.137 86.567,39.675 85.943,39.583 85.918 C 39.492 85.893,36.042 87.358,31.917 89.173 M46.645 93.572 C 50.553 95.262,54.425 96.939,55.250 97.300 L 56.750 97.956 56.750 109.269 L 56.750 120.583 56.299 121.438 C 54.444 124.956,48.988 129.967,41.599 134.940 C 39.231 136.534,39.918 136.658,36.130 133.952 C 29.155 128.969,23.957 123.886,22.731 120.850 L 22.331 119.860 22.374 108.912 L 22.417 97.964 30.917 94.240 C 35.592 92.192,39.445 90.512,39.479 90.508 C 39.513 90.504,42.738 91.882,46.645 93.572 M95.583 95.597 C 89.397 96.956,86.177 103.046,88.891 108.250 C 90.297 110.944,92.432 112.081,100.603 114.481 C 104.756 115.701,105.967 119.260,103.090 121.792 C 100.302 124.247,94.367 123.644,91.327 120.598 L 90.405 119.673 88.680 121.404 L 86.954 123.135 87.757 123.915 C 93.757 129.746,105.235 129.061,108.646 122.667 C 110.450 119.284,109.849 114.972,107.226 112.492 C 105.908 111.246,102.446 109.766,98.059 108.574 C 94.374 107.572,92.840 106.104,93.034 103.764 C 93.386 99.512,100.493 98.479,104.610 102.081 L 105.445 102.811 107.153 101.097 L 108.860 99.384 107.900 98.528 C 105.030 95.970,99.680 94.697,95.583 95.597 M340.796 95.580 C 337.669 96.440,336.341 98.787,336.336 103.458 L 336.333 105.667 334.667 105.667 L 333.000 105.667 333.000 107.833 L 333.000 110.000 334.667 110.000 L 336.333 110.000 336.333 118.750 L 336.333 127.500 338.583 127.500 L 340.833 127.500 340.833 118.750 L 340.833 110.000 343.500 110.000 L 346.167 110.000 346.167 107.833 L 346.167 105.667 343.482 105.667 L 340.797 105.667 340.860 103.792 C 340.980 100.180,342.668 98.845,345.670 99.986 L 346.509 100.305 346.463 98.116 L 346.417 95.928 345.500 95.641 C 344.397 95.295,341.945 95.263,340.796 95.580 M252.667 95.837 C 252.667 95.931,253.685 98.650,254.930 101.879 C 256.175 105.108,258.234 110.450,259.506 113.750 C 260.778 117.050,262.485 121.475,263.299 123.583 L 264.778 127.417 267.521 127.462 L 270.264 127.508 270.618 126.546 C 270.813 126.016,272.148 122.546,273.584 118.833 C 275.020 115.121,277.135 109.646,278.284 106.667 C 281.313 98.812,282.288 96.287,282.419 95.958 C 282.527 95.688,282.343 95.667,279.893 95.668 L 277.250 95.670 275.768 99.543 C 274.953 101.674,273.779 104.729,273.159 106.333 C 272.539 107.938,271.160 111.537,270.094 114.333 C 269.028 117.129,268.013 119.754,267.840 120.167 L 267.524 120.917 267.179 120.111 C 266.989 119.668,266.833 119.277,266.833 119.241 C 266.833 119.206,264.951 114.281,262.650 108.297 C 260.349 102.313,258.319 97.023,258.138 96.542 L 257.809 95.667 255.238 95.667 C 253.594 95.667,252.667 95.728,252.667 95.837 M166.083 96.286 C 164.496 96.672,163.618 98.978,164.542 100.335 C 165.793 102.173,168.315 102.084,169.302 100.166 C 170.394 98.046,168.456 95.710,166.083 96.286 M324.712 96.505 C 322.074 97.849,323.179 101.828,326.132 101.618 C 329.451 101.381,329.536 96.592,326.227 96.234 C 325.603 96.167,325.255 96.229,324.712 96.505 M43.222 107.553 C 36.542 113.612,36.640 113.523,36.232 113.873 C 35.904 114.155,35.835 114.117,33.848 112.581 C 32.723 111.712,31.748 111.000,31.682 111.000 C 31.526 111.000,29.167 113.944,29.167 114.139 C 29.167 114.266,35.325 119.184,35.944 119.551 C 36.078 119.630,36.261 119.596,36.390 119.468 C 36.510 119.348,39.958 116.225,44.054 112.528 C 48.149 108.831,51.500 105.748,51.500 105.678 C 51.500 105.459,48.950 102.666,48.761 102.678 C 48.663 102.685,46.171 104.879,43.222 107.553 M123.000 105.333 C 115.289 106.280,110.908 114.983,114.602 122.014 C 118.716 129.842,130.578 129.784,134.611 121.917 C 138.873 113.604,132.284 104.194,123.000 105.333 M149.293 105.338 C 139.985 106.446,136.147 118.143,142.924 124.750 C 147.261 128.978,154.383 128.907,158.959 124.590 L 160.210 123.410 158.548 121.878 L 156.886 120.345 156.559 120.752 C 152.663 125.593,145.066 123.747,144.161 117.739 C 143.112 110.777,150.789 106.971,156.067 111.836 L 156.763 112.477 158.340 110.990 L 159.917 109.503 158.723 108.363 C 156.269 106.020,152.831 104.917,149.293 105.338 M184.127 105.338 C 177.519 106.125,173.121 112.531,174.599 119.217 C 176.489 127.768,187.346 130.840,193.587 124.589 C 201.314 116.851,195.019 104.042,184.127 105.338 M233.833 105.275 C 227.050 106.030,224.488 113.083,229.732 116.564 C 230.543 117.102,234.729 118.667,235.358 118.667 C 236.703 118.667,238.616 120.388,238.445 121.444 C 237.963 124.409,232.847 124.540,229.848 121.665 L 229.030 120.880 227.563 122.354 L 226.097 123.827 226.438 124.288 C 230.075 129.205,240.022 128.909,242.473 123.811 C 244.396 119.811,242.390 116.491,237.000 114.755 C 232.081 113.170,231.184 112.547,231.675 111.057 C 232.376 108.935,236.473 108.788,239.142 110.790 L 239.700 111.209 241.181 109.735 L 242.662 108.261 242.123 107.701 C 240.668 106.189,236.521 104.976,233.833 105.275 M291.917 105.330 C 281.169 106.653,278.689 121.830,288.424 126.707 C 292.554 128.776,298.518 127.959,301.857 124.868 C 303.029 123.783,303.016 123.927,302.042 122.813 C 301.606 122.315,301.012 121.618,300.720 121.263 L 300.191 120.620 299.316 121.385 C 295.428 124.786,289.693 124.004,287.591 119.786 C 287.358 119.318,287.167 118.762,287.167 118.551 L 287.167 118.167 295.477 118.167 L 303.788 118.167 303.894 117.393 C 304.888 110.141,299.219 104.430,291.917 105.330 M317.083 105.338 C 315.312 105.615,314.111 106.236,312.625 107.643 L 311.667 108.551 311.667 107.109 L 311.667 105.667 309.417 105.667 L 307.167 105.667 307.167 116.583 L 307.167 127.500 309.404 127.500 L 311.642 127.500 311.706 121.208 C 311.775 114.386,311.800 114.189,312.788 112.612 C 313.984 110.702,315.448 109.915,317.792 109.921 L 319.500 109.926 319.500 107.546 L 319.500 105.167 318.708 105.187 C 318.273 105.199,317.542 105.267,317.083 105.338 M164.667 116.583 L 164.667 127.500 166.917 127.500 L 169.167 127.500 169.167 116.583 L 169.167 105.667 166.917 105.667 L 164.667 105.667 164.667 116.583 M201.833 112.395 C 201.833 120.019,201.950 121.191,202.912 123.275 C 205.253 128.341,212.140 129.469,216.250 125.459 L 217.333 124.402 217.333 125.951 L 217.333 127.500 219.583 127.500 L 221.833 127.500 221.833 116.583 L 221.833 105.667 219.595 105.667 L 217.357 105.667 217.299 112.292 C 217.242 118.810,217.234 118.933,216.844 119.912 C 215.018 124.500,208.078 124.752,206.749 120.279 C 206.546 119.593,206.500 118.180,206.500 112.553 L 206.500 105.667 204.167 105.667 L 201.833 105.667 201.833 112.395 M323.667 116.583 L 323.667 127.500 325.917 127.500 L 328.167 127.500 328.167 116.583 L 328.167 105.667 325.917 105.667 L 323.667 105.667 323.667 116.583 M348.169 106.507 C 348.353 106.973,349.242 109.169,350.144 111.386 C 351.047 113.603,352.884 118.121,354.227 121.426 L 356.670 127.434 356.238 128.509 C 355.482 130.388,355.105 131.026,354.363 131.679 C 353.158 132.740,351.251 132.902,349.658 132.079 L 349.167 131.825 349.167 134.056 L 349.167 136.288 350.125 136.594 C 352.332 137.300,354.984 136.877,356.746 135.539 C 358.657 134.087,359.527 132.589,361.755 126.917 C 362.548 124.900,364.387 120.212,365.842 116.500 C 367.297 112.787,368.828 108.888,369.244 107.835 C 369.660 106.781,370.000 105.863,370.000 105.793 C 370.000 105.724,368.887 105.667,367.527 105.667 L 365.054 105.667 363.450 109.875 C 362.568 112.190,361.195 115.794,360.399 117.885 L 358.951 121.687 357.128 116.885 C 356.125 114.244,354.764 110.658,354.104 108.917 L 352.904 105.750 350.370 105.704 L 347.835 105.658 348.169 106.507 M295.866 109.877 C 297.339 110.559,298.708 112.254,299.094 113.875 L 299.203 114.333 293.185 114.333 C 288.265 114.333,287.167 114.293,287.167 114.110 C 287.167 113.174,289.020 110.676,290.145 110.094 C 291.804 109.237,294.280 109.142,295.866 109.877 M126.925 109.989 C 131.393 111.559,132.837 117.790,129.554 121.336 C 125.912 125.270,119.389 123.643,118.062 118.469 C 116.642 112.933,121.655 108.137,126.925 109.989 M187.770 109.913 C 192.847 111.421,194.040 119.040,189.697 122.228 C 186.422 124.632,181.454 123.525,179.692 119.999 C 176.835 114.281,181.762 108.129,187.770 109.913 " stroke="none" fill="#044c44" fill-rule="evenodd"/><path id="path1" d="" stroke="none" fill="#084c44" fill-rule="evenodd"/><path id="path2" d="" stroke="none" fill="#084c44" fill-rule="evenodd"/><path id="path3" d="" stroke="none" fill="#084c44" fill-rule="evenodd"/><path id="path4" d="" stroke="none" fill="#084c44" fill-rule="evenodd"/></g></svg>